<svg width="180" height="180" viewBox="0 0 48 48" fill="none" xmlns="http://www.w3.org/2000/svg">
  <rect width="48" height="48" rx="12" fill="#1C1917" />
  <path
    d="M24 4C24 4 28 12 28 18C28 22 26 24 24 26C22 24 20 22 20 18C20 12 24 4 24 4Z"
    fill="#FF6B35"
  />
  <path
    d="M24 10C24 10 32 20 32 28C32 36 28 40 24 44C20 40 16 36 16 28C16 20 24 10 24 10Z"
    fill="#C8A96E"
  />
  <path
    d="M24 20C24 20 28 26 28 32C28 36 26 38 24 40C22 38 20 36 20 32C20 26 24 20 24 20Z"
    fill="#FF6B35"
  />
</svg>
